<mxfile host="Electron" agent="Mozilla/5.0 (Windows NT 10.0; Win64; x64) AppleWebKit/537.36 (KHTML, like Gecko) draw.io/24.7.8 Chrome/128.0.6613.36 Electron/32.0.1 Safari/537.36" version="24.7.8">
  <diagram name="Page-1" id="03018318-947c-dd8e-b7a3-06fadd420f32">
    <mxGraphModel dx="1468" dy="1088" grid="1" gridSize="10" guides="1" tooltips="1" connect="1" arrows="1" fold="1" page="1" pageScale="1" pageWidth="1100" pageHeight="850" background="none" math="0" shadow="0">
      <root>
        <mxCell id="0" />
        <mxCell id="1" parent="0" />
        <mxCell id="677b7b8949515195-1" value="" style="whiteSpace=wrap;html=1;rounded=0;shadow=0;labelBackgroundColor=none;strokeColor=#000000;strokeWidth=1;fillColor=none;fontFamily=Verdana;fontSize=12;fontColor=#000000;align=center;comic=1;" parent="1" vertex="1">
          <mxGeometry x="20" y="125" width="1060" height="710" as="geometry" />
        </mxCell>
        <mxCell id="677b7b8949515195-3" value="Search" style="strokeWidth=1;shadow=0;dashed=0;align=center;html=1;shape=mxgraph.mockup.forms.searchBox;strokeColor=#999999;mainText=;strokeColor2=#008cff;fontColor=#666666;fontSize=17;align=left;spacingLeft=3;rounded=0;labelBackgroundColor=none;comic=1;" parent="1" vertex="1">
          <mxGeometry x="440" y="780" width="220" height="30" as="geometry" />
        </mxCell>
        <mxCell id="677b7b8949515195-9" value="" style="line;strokeWidth=1;html=1;rounded=0;shadow=0;labelBackgroundColor=none;fillColor=none;fontFamily=Verdana;fontSize=14;fontColor=#000000;align=center;comic=1;" parent="1" vertex="1">
          <mxGeometry x="20" y="140" width="1060" height="10" as="geometry" />
        </mxCell>
        <mxCell id="677b7b8949515195-10" value="" style="whiteSpace=wrap;html=1;rounded=0;shadow=0;labelBackgroundColor=none;strokeWidth=1;fillColor=none;fontFamily=Verdana;fontSize=12;align=center;comic=1;" parent="1" vertex="1">
          <mxGeometry x="30" y="160" width="1040" height="50" as="geometry" />
        </mxCell>
        <mxCell id="CNY90YAkgWfJfwW_G2L8-7" value="" style="whiteSpace=wrap;html=1;rounded=0;shadow=0;labelBackgroundColor=none;strokeWidth=1;fillColor=none;fontFamily=Verdana;fontSize=12;align=center;comic=1;" vertex="1" parent="1">
          <mxGeometry x="30" y="770" width="1040" height="50" as="geometry" />
        </mxCell>
        <mxCell id="CNY90YAkgWfJfwW_G2L8-8" value="" style="strokeWidth=1;shadow=0;dashed=0;align=center;html=1;shape=mxgraph.mockup.forms.comboBox;strokeColor=#999999;fillColor=#3d8af7;align=left;fillColor2=#aaddff;mainText=;fontColor=#666666;fontSize=17;spacingLeft=3;" vertex="1" parent="1">
          <mxGeometry x="280" y="780" width="150" height="30" as="geometry" />
        </mxCell>
        <mxCell id="CNY90YAkgWfJfwW_G2L8-9" value="Добавить" style="strokeWidth=1;shadow=0;dashed=0;align=center;html=1;shape=mxgraph.mockup.buttons.button;strokeColor=#666666;fontColor=#ffffff;mainText=;buttonStyle=round;fontSize=17;fontStyle=1;fillColor=#008cff;whiteSpace=wrap;" vertex="1" parent="1">
          <mxGeometry x="50" y="170" width="110" height="30" as="geometry" />
        </mxCell>
        <mxCell id="CNY90YAkgWfJfwW_G2L8-10" value="Изменить" style="strokeWidth=1;shadow=0;dashed=0;align=center;html=1;shape=mxgraph.mockup.buttons.button;strokeColor=#666666;fontColor=#ffffff;mainText=;buttonStyle=round;fontSize=17;fontStyle=1;fillColor=#008cff;whiteSpace=wrap;" vertex="1" parent="1">
          <mxGeometry x="180" y="170" width="110" height="30" as="geometry" />
        </mxCell>
        <mxCell id="CNY90YAkgWfJfwW_G2L8-11" value="Удалить" style="strokeWidth=1;shadow=0;dashed=0;align=center;html=1;shape=mxgraph.mockup.buttons.button;strokeColor=#666666;fontColor=#ffffff;mainText=;buttonStyle=round;fontSize=17;fontStyle=1;fillColor=#008cff;whiteSpace=wrap;" vertex="1" parent="1">
          <mxGeometry x="310" y="170" width="110" height="30" as="geometry" />
        </mxCell>
        <mxCell id="CNY90YAkgWfJfwW_G2L8-12" value="Найти" style="strokeWidth=1;shadow=0;dashed=0;align=center;html=1;shape=mxgraph.mockup.buttons.button;strokeColor=#666666;fontColor=#ffffff;mainText=;buttonStyle=round;fontSize=17;fontStyle=1;fillColor=#008cff;whiteSpace=wrap;" vertex="1" parent="1">
          <mxGeometry x="670" y="780" width="90" height="31" as="geometry" />
        </mxCell>
        <mxCell id="CNY90YAkgWfJfwW_G2L8-13" value="GAI System" style="text;html=1;align=center;verticalAlign=middle;whiteSpace=wrap;rounded=0;fontSize=16;" vertex="1" parent="1">
          <mxGeometry x="20" y="125" width="90" height="19" as="geometry" />
        </mxCell>
        <mxCell id="CNY90YAkgWfJfwW_G2L8-14" value="" style="shape=mxgraph.mockup.markup.redX;fillColor=#ff0000;html=1;shadow=0;whiteSpace=wrap;strokeColor=none;" vertex="1" parent="1">
          <mxGeometry x="1060" y="125" width="20" height="20" as="geometry" />
        </mxCell>
        <mxCell id="CNY90YAkgWfJfwW_G2L8-15" value="" style="shape=table;html=1;whiteSpace=wrap;startSize=0;container=1;collapsible=0;childLayout=tableLayout;strokeWidth=2;fontSize=17;" vertex="1" parent="1">
          <mxGeometry x="40" y="240" width="1020" height="280" as="geometry" />
        </mxCell>
        <mxCell id="CNY90YAkgWfJfwW_G2L8-16" value="" style="shape=tableRow;horizontal=0;startSize=0;swimlaneHead=0;swimlaneBody=0;top=0;left=0;bottom=0;right=0;collapsible=0;dropTarget=0;fillColor=none;points=[[0,0.5],[1,0.5]];portConstraint=eastwest;" vertex="1" parent="CNY90YAkgWfJfwW_G2L8-15">
          <mxGeometry width="1020" height="40" as="geometry" />
        </mxCell>
        <mxCell id="CNY90YAkgWfJfwW_G2L8-17" value="Имя водителя" style="shape=partialRectangle;html=1;whiteSpace=wrap;connectable=0;fillColor=none;top=0;left=0;bottom=0;right=0;overflow=hidden;fontStyle=1;fontSize=14;" vertex="1" parent="CNY90YAkgWfJfwW_G2L8-16">
          <mxGeometry width="255" height="40" as="geometry">
            <mxRectangle width="255" height="40" as="alternateBounds" />
          </mxGeometry>
        </mxCell>
        <mxCell id="CNY90YAkgWfJfwW_G2L8-18" value="Номер машины" style="shape=partialRectangle;html=1;whiteSpace=wrap;connectable=0;fillColor=none;top=0;left=0;bottom=0;right=0;overflow=hidden;fontStyle=1;fontSize=14;" vertex="1" parent="CNY90YAkgWfJfwW_G2L8-16">
          <mxGeometry x="255" width="255" height="40" as="geometry">
            <mxRectangle width="255" height="40" as="alternateBounds" />
          </mxGeometry>
        </mxCell>
        <mxCell id="CNY90YAkgWfJfwW_G2L8-25" value="Дата нарушения" style="shape=partialRectangle;html=1;whiteSpace=wrap;connectable=0;fillColor=none;top=0;left=0;bottom=0;right=0;overflow=hidden;fontStyle=1;fontSize=14;" vertex="1" parent="CNY90YAkgWfJfwW_G2L8-16">
          <mxGeometry x="510" width="255" height="40" as="geometry">
            <mxRectangle width="255" height="40" as="alternateBounds" />
          </mxGeometry>
        </mxCell>
        <mxCell id="CNY90YAkgWfJfwW_G2L8-28" value="Тип нарушения" style="shape=partialRectangle;html=1;whiteSpace=wrap;connectable=0;fillColor=none;top=0;left=0;bottom=0;right=0;overflow=hidden;fontStyle=1;fontSize=14;" vertex="1" parent="CNY90YAkgWfJfwW_G2L8-16">
          <mxGeometry x="765" width="255" height="40" as="geometry">
            <mxRectangle width="255" height="40" as="alternateBounds" />
          </mxGeometry>
        </mxCell>
        <mxCell id="CNY90YAkgWfJfwW_G2L8-19" value="" style="shape=tableRow;horizontal=0;startSize=0;swimlaneHead=0;swimlaneBody=0;top=0;left=0;bottom=0;right=0;collapsible=0;dropTarget=0;fillColor=none;points=[[0,0.5],[1,0.5]];portConstraint=eastwest;" vertex="1" parent="CNY90YAkgWfJfwW_G2L8-15">
          <mxGeometry y="40" width="1020" height="39" as="geometry" />
        </mxCell>
        <mxCell id="CNY90YAkgWfJfwW_G2L8-20" value="" style="shape=partialRectangle;html=1;whiteSpace=wrap;connectable=0;fillColor=none;top=0;left=0;bottom=0;right=0;overflow=hidden;" vertex="1" parent="CNY90YAkgWfJfwW_G2L8-19">
          <mxGeometry width="255" height="39" as="geometry">
            <mxRectangle width="255" height="39" as="alternateBounds" />
          </mxGeometry>
        </mxCell>
        <mxCell id="CNY90YAkgWfJfwW_G2L8-21" value="" style="shape=partialRectangle;html=1;whiteSpace=wrap;connectable=0;fillColor=none;top=0;left=0;bottom=0;right=0;overflow=hidden;" vertex="1" parent="CNY90YAkgWfJfwW_G2L8-19">
          <mxGeometry x="255" width="255" height="39" as="geometry">
            <mxRectangle width="255" height="39" as="alternateBounds" />
          </mxGeometry>
        </mxCell>
        <mxCell id="CNY90YAkgWfJfwW_G2L8-26" style="shape=partialRectangle;html=1;whiteSpace=wrap;connectable=0;fillColor=none;top=0;left=0;bottom=0;right=0;overflow=hidden;" vertex="1" parent="CNY90YAkgWfJfwW_G2L8-19">
          <mxGeometry x="510" width="255" height="39" as="geometry">
            <mxRectangle width="255" height="39" as="alternateBounds" />
          </mxGeometry>
        </mxCell>
        <mxCell id="CNY90YAkgWfJfwW_G2L8-29" style="shape=partialRectangle;html=1;whiteSpace=wrap;connectable=0;fillColor=none;top=0;left=0;bottom=0;right=0;overflow=hidden;" vertex="1" parent="CNY90YAkgWfJfwW_G2L8-19">
          <mxGeometry x="765" width="255" height="39" as="geometry">
            <mxRectangle width="255" height="39" as="alternateBounds" />
          </mxGeometry>
        </mxCell>
        <mxCell id="CNY90YAkgWfJfwW_G2L8-22" value="" style="shape=tableRow;horizontal=0;startSize=0;swimlaneHead=0;swimlaneBody=0;top=0;left=0;bottom=0;right=0;collapsible=0;dropTarget=0;fillColor=none;points=[[0,0.5],[1,0.5]];portConstraint=eastwest;" vertex="1" parent="CNY90YAkgWfJfwW_G2L8-15">
          <mxGeometry y="79" width="1020" height="41" as="geometry" />
        </mxCell>
        <mxCell id="CNY90YAkgWfJfwW_G2L8-23" value="" style="shape=partialRectangle;html=1;whiteSpace=wrap;connectable=0;fillColor=none;top=0;left=0;bottom=0;right=0;overflow=hidden;" vertex="1" parent="CNY90YAkgWfJfwW_G2L8-22">
          <mxGeometry width="255" height="41" as="geometry">
            <mxRectangle width="255" height="41" as="alternateBounds" />
          </mxGeometry>
        </mxCell>
        <mxCell id="CNY90YAkgWfJfwW_G2L8-24" value="" style="shape=partialRectangle;html=1;whiteSpace=wrap;connectable=0;fillColor=none;top=0;left=0;bottom=0;right=0;overflow=hidden;" vertex="1" parent="CNY90YAkgWfJfwW_G2L8-22">
          <mxGeometry x="255" width="255" height="41" as="geometry">
            <mxRectangle width="255" height="41" as="alternateBounds" />
          </mxGeometry>
        </mxCell>
        <mxCell id="CNY90YAkgWfJfwW_G2L8-27" style="shape=partialRectangle;html=1;whiteSpace=wrap;connectable=0;fillColor=none;top=0;left=0;bottom=0;right=0;overflow=hidden;" vertex="1" parent="CNY90YAkgWfJfwW_G2L8-22">
          <mxGeometry x="510" width="255" height="41" as="geometry">
            <mxRectangle width="255" height="41" as="alternateBounds" />
          </mxGeometry>
        </mxCell>
        <mxCell id="CNY90YAkgWfJfwW_G2L8-30" style="shape=partialRectangle;html=1;whiteSpace=wrap;connectable=0;fillColor=none;top=0;left=0;bottom=0;right=0;overflow=hidden;" vertex="1" parent="CNY90YAkgWfJfwW_G2L8-22">
          <mxGeometry x="765" width="255" height="41" as="geometry">
            <mxRectangle width="255" height="41" as="alternateBounds" />
          </mxGeometry>
        </mxCell>
        <mxCell id="CNY90YAkgWfJfwW_G2L8-31" style="shape=tableRow;horizontal=0;startSize=0;swimlaneHead=0;swimlaneBody=0;top=0;left=0;bottom=0;right=0;collapsible=0;dropTarget=0;fillColor=none;points=[[0,0.5],[1,0.5]];portConstraint=eastwest;" vertex="1" parent="CNY90YAkgWfJfwW_G2L8-15">
          <mxGeometry y="120" width="1020" height="39" as="geometry" />
        </mxCell>
        <mxCell id="CNY90YAkgWfJfwW_G2L8-32" style="shape=partialRectangle;html=1;whiteSpace=wrap;connectable=0;fillColor=none;top=0;left=0;bottom=0;right=0;overflow=hidden;" vertex="1" parent="CNY90YAkgWfJfwW_G2L8-31">
          <mxGeometry width="255" height="39" as="geometry">
            <mxRectangle width="255" height="39" as="alternateBounds" />
          </mxGeometry>
        </mxCell>
        <mxCell id="CNY90YAkgWfJfwW_G2L8-33" style="shape=partialRectangle;html=1;whiteSpace=wrap;connectable=0;fillColor=none;top=0;left=0;bottom=0;right=0;overflow=hidden;" vertex="1" parent="CNY90YAkgWfJfwW_G2L8-31">
          <mxGeometry x="255" width="255" height="39" as="geometry">
            <mxRectangle width="255" height="39" as="alternateBounds" />
          </mxGeometry>
        </mxCell>
        <mxCell id="CNY90YAkgWfJfwW_G2L8-34" style="shape=partialRectangle;html=1;whiteSpace=wrap;connectable=0;fillColor=none;top=0;left=0;bottom=0;right=0;overflow=hidden;" vertex="1" parent="CNY90YAkgWfJfwW_G2L8-31">
          <mxGeometry x="510" width="255" height="39" as="geometry">
            <mxRectangle width="255" height="39" as="alternateBounds" />
          </mxGeometry>
        </mxCell>
        <mxCell id="CNY90YAkgWfJfwW_G2L8-35" style="shape=partialRectangle;html=1;whiteSpace=wrap;connectable=0;fillColor=none;top=0;left=0;bottom=0;right=0;overflow=hidden;" vertex="1" parent="CNY90YAkgWfJfwW_G2L8-31">
          <mxGeometry x="765" width="255" height="39" as="geometry">
            <mxRectangle width="255" height="39" as="alternateBounds" />
          </mxGeometry>
        </mxCell>
        <mxCell id="CNY90YAkgWfJfwW_G2L8-36" style="shape=tableRow;horizontal=0;startSize=0;swimlaneHead=0;swimlaneBody=0;top=0;left=0;bottom=0;right=0;collapsible=0;dropTarget=0;fillColor=none;points=[[0,0.5],[1,0.5]];portConstraint=eastwest;" vertex="1" parent="CNY90YAkgWfJfwW_G2L8-15">
          <mxGeometry y="159" width="1020" height="40" as="geometry" />
        </mxCell>
        <mxCell id="CNY90YAkgWfJfwW_G2L8-37" style="shape=partialRectangle;html=1;whiteSpace=wrap;connectable=0;fillColor=none;top=0;left=0;bottom=0;right=0;overflow=hidden;" vertex="1" parent="CNY90YAkgWfJfwW_G2L8-36">
          <mxGeometry width="255" height="40" as="geometry">
            <mxRectangle width="255" height="40" as="alternateBounds" />
          </mxGeometry>
        </mxCell>
        <mxCell id="CNY90YAkgWfJfwW_G2L8-38" style="shape=partialRectangle;html=1;whiteSpace=wrap;connectable=0;fillColor=none;top=0;left=0;bottom=0;right=0;overflow=hidden;" vertex="1" parent="CNY90YAkgWfJfwW_G2L8-36">
          <mxGeometry x="255" width="255" height="40" as="geometry">
            <mxRectangle width="255" height="40" as="alternateBounds" />
          </mxGeometry>
        </mxCell>
        <mxCell id="CNY90YAkgWfJfwW_G2L8-39" style="shape=partialRectangle;html=1;whiteSpace=wrap;connectable=0;fillColor=none;top=0;left=0;bottom=0;right=0;overflow=hidden;" vertex="1" parent="CNY90YAkgWfJfwW_G2L8-36">
          <mxGeometry x="510" width="255" height="40" as="geometry">
            <mxRectangle width="255" height="40" as="alternateBounds" />
          </mxGeometry>
        </mxCell>
        <mxCell id="CNY90YAkgWfJfwW_G2L8-40" style="shape=partialRectangle;html=1;whiteSpace=wrap;connectable=0;fillColor=none;top=0;left=0;bottom=0;right=0;overflow=hidden;" vertex="1" parent="CNY90YAkgWfJfwW_G2L8-36">
          <mxGeometry x="765" width="255" height="40" as="geometry">
            <mxRectangle width="255" height="40" as="alternateBounds" />
          </mxGeometry>
        </mxCell>
        <mxCell id="CNY90YAkgWfJfwW_G2L8-41" style="shape=tableRow;horizontal=0;startSize=0;swimlaneHead=0;swimlaneBody=0;top=0;left=0;bottom=0;right=0;collapsible=0;dropTarget=0;fillColor=none;points=[[0,0.5],[1,0.5]];portConstraint=eastwest;" vertex="1" parent="CNY90YAkgWfJfwW_G2L8-15">
          <mxGeometry y="199" width="1020" height="41" as="geometry" />
        </mxCell>
        <mxCell id="CNY90YAkgWfJfwW_G2L8-42" style="shape=partialRectangle;html=1;whiteSpace=wrap;connectable=0;fillColor=none;top=0;left=0;bottom=0;right=0;overflow=hidden;" vertex="1" parent="CNY90YAkgWfJfwW_G2L8-41">
          <mxGeometry width="255" height="41" as="geometry">
            <mxRectangle width="255" height="41" as="alternateBounds" />
          </mxGeometry>
        </mxCell>
        <mxCell id="CNY90YAkgWfJfwW_G2L8-43" style="shape=partialRectangle;html=1;whiteSpace=wrap;connectable=0;fillColor=none;top=0;left=0;bottom=0;right=0;overflow=hidden;" vertex="1" parent="CNY90YAkgWfJfwW_G2L8-41">
          <mxGeometry x="255" width="255" height="41" as="geometry">
            <mxRectangle width="255" height="41" as="alternateBounds" />
          </mxGeometry>
        </mxCell>
        <mxCell id="CNY90YAkgWfJfwW_G2L8-44" style="shape=partialRectangle;html=1;whiteSpace=wrap;connectable=0;fillColor=none;top=0;left=0;bottom=0;right=0;overflow=hidden;" vertex="1" parent="CNY90YAkgWfJfwW_G2L8-41">
          <mxGeometry x="510" width="255" height="41" as="geometry">
            <mxRectangle width="255" height="41" as="alternateBounds" />
          </mxGeometry>
        </mxCell>
        <mxCell id="CNY90YAkgWfJfwW_G2L8-45" style="shape=partialRectangle;html=1;whiteSpace=wrap;connectable=0;fillColor=none;top=0;left=0;bottom=0;right=0;overflow=hidden;" vertex="1" parent="CNY90YAkgWfJfwW_G2L8-41">
          <mxGeometry x="765" width="255" height="41" as="geometry">
            <mxRectangle width="255" height="41" as="alternateBounds" />
          </mxGeometry>
        </mxCell>
        <mxCell id="CNY90YAkgWfJfwW_G2L8-46" style="shape=tableRow;horizontal=0;startSize=0;swimlaneHead=0;swimlaneBody=0;top=0;left=0;bottom=0;right=0;collapsible=0;dropTarget=0;fillColor=none;points=[[0,0.5],[1,0.5]];portConstraint=eastwest;" vertex="1" parent="CNY90YAkgWfJfwW_G2L8-15">
          <mxGeometry y="240" width="1020" height="40" as="geometry" />
        </mxCell>
        <mxCell id="CNY90YAkgWfJfwW_G2L8-47" style="shape=partialRectangle;html=1;whiteSpace=wrap;connectable=0;fillColor=none;top=0;left=0;bottom=0;right=0;overflow=hidden;" vertex="1" parent="CNY90YAkgWfJfwW_G2L8-46">
          <mxGeometry width="255" height="40" as="geometry">
            <mxRectangle width="255" height="40" as="alternateBounds" />
          </mxGeometry>
        </mxCell>
        <mxCell id="CNY90YAkgWfJfwW_G2L8-48" style="shape=partialRectangle;html=1;whiteSpace=wrap;connectable=0;fillColor=none;top=0;left=0;bottom=0;right=0;overflow=hidden;" vertex="1" parent="CNY90YAkgWfJfwW_G2L8-46">
          <mxGeometry x="255" width="255" height="40" as="geometry">
            <mxRectangle width="255" height="40" as="alternateBounds" />
          </mxGeometry>
        </mxCell>
        <mxCell id="CNY90YAkgWfJfwW_G2L8-49" style="shape=partialRectangle;html=1;whiteSpace=wrap;connectable=0;fillColor=none;top=0;left=0;bottom=0;right=0;overflow=hidden;" vertex="1" parent="CNY90YAkgWfJfwW_G2L8-46">
          <mxGeometry x="510" width="255" height="40" as="geometry">
            <mxRectangle width="255" height="40" as="alternateBounds" />
          </mxGeometry>
        </mxCell>
        <mxCell id="CNY90YAkgWfJfwW_G2L8-50" style="shape=partialRectangle;html=1;whiteSpace=wrap;connectable=0;fillColor=none;top=0;left=0;bottom=0;right=0;overflow=hidden;" vertex="1" parent="CNY90YAkgWfJfwW_G2L8-46">
          <mxGeometry x="765" width="255" height="40" as="geometry">
            <mxRectangle width="255" height="40" as="alternateBounds" />
          </mxGeometry>
        </mxCell>
        <mxCell id="CNY90YAkgWfJfwW_G2L8-52" value="Сохранить" style="strokeWidth=1;shadow=0;dashed=0;align=center;html=1;shape=mxgraph.mockup.buttons.button;strokeColor=#666666;fontColor=#ffffff;mainText=;buttonStyle=round;fontSize=17;fontStyle=1;fillColor=#008cff;whiteSpace=wrap;" vertex="1" parent="1">
          <mxGeometry x="940" y="170" width="110" height="30" as="geometry" />
        </mxCell>
        <mxCell id="CNY90YAkgWfJfwW_G2L8-53" value="Загрузить" style="strokeWidth=1;shadow=0;dashed=0;align=center;html=1;shape=mxgraph.mockup.buttons.button;strokeColor=#666666;fontColor=#ffffff;mainText=;buttonStyle=round;fontSize=17;fontStyle=1;fillColor=#008cff;whiteSpace=wrap;" vertex="1" parent="1">
          <mxGeometry x="810" y="170" width="110" height="30" as="geometry" />
        </mxCell>
      </root>
    </mxGraphModel>
  </diagram>
</mxfile>
